<?xml version="1.0" encoding="UTF-8"?>
<!DOCTYPE svg PUBLIC "-//W3C//DTD SVG 1.1//EN" "http://www.w3.org/Graphics/SVG/1.1/DTD/svg11.dtd">
<!-- Creator: CorelDRAW X7 -->
<svg xmlns="http://www.w3.org/2000/svg" xml:space="preserve" width="0.666669in" height="0.666661in" version="1.1" style="shape-rendering:geometricPrecision; text-rendering:geometricPrecision; image-rendering:optimizeQuality; fill-rule:evenodd; clip-rule:evenodd"
viewBox="0 0 2791 2791"
 xmlns:xlink="http://www.w3.org/1999/xlink">
 <defs>
  <style type="text/css">
   <![CDATA[
    .fil0 {fill:none}
    .fil3 {fill:#F79633}
    .fil1 {fill:#8FC74A}
    .fil2 {fill:url(#id0)}
    .fil4 {fill:url(#id1);fill-rule:nonzero}
   ]]>
  </style>
  <linearGradient id="id0" gradientUnits="userSpaceOnUse" x1="703.672" y1="444.305" x2="1873.43" y2="1243.59">
   <stop offset="0" style="stop-opacity:1; stop-color:#009294"/>
   <stop offset="1" style="stop-opacity:1; stop-color:#8C2E7C"/>
  </linearGradient>
  <linearGradient id="id1" gradientUnits="userSpaceOnUse" xlink:href="#id0" x1="875.061" y1="1262.86" x2="2072.95" y2="2360.28">
  </linearGradient>
 </defs>
 <g id="Layer_x0020_1">
  <metadata id="CorelCorpID_0Corel-Layer"/>
  <rect class="fil0" width="2791" height="2791"/>
  <g id="_2287989079984">
   <path class="fil1" d="M1710 938l-37 -89 0 -118c0,-47 -39,-86 -87,-86l-83 0c-47,0 -86,39 -86,86l0 84c0,47 39,86 86,86l117 0 90 37z"/>
   <g>
    <path class="fil2" d="M1796 948l-257 46c-94,16 -183,-47 -200,-140l-15 -87c-16,-93 46,-183 139,-200l88 -15c93,-16 183,46 199,140l46 256zm229 -375l-131 23c-23,4 -38,26 -34,49l50 283 -87 16 -50 -284c-13,-71 35,-138 105,-151l131 -23 16 87zm359 363l-2087 368c-49,9 -96,-24 -104,-73l-73 -412c-8,-49 24,-96 73,-104l1885 -333 16 89 -58 10 16 88 57 -11 35 197c5,29 20,55 41,74l0 1 12 9c29,20 64,27 98,21l162 -28c9,49 -24,95 -73,104zm-1814 126c4,-8 6,-17 4,-26 -1,-10 -7,-18 -15,-24l-2 -1c-8,-5 -17,-6 -26,-5l-183 32c-33,6 -66,-1 -94,-20l-12 -9 0 -1c-20,-19 -34,-43 -39,-71 -6,-33 2,-67 21,-94 19,-27 48,-46 80,-51l279 -50 15 88 -278 49c-10,2 -18,7 -24,15 -5,8 -8,18 -6,27 2,9 6,17 13,22l2 2c8,6 18,8 28,6l183 -32c31,-6 62,1 88,17l1 0 5 4c27,19 46,48 52,81 5,28 0,56 -13,81l0 0 -8 13c-19,27 -48,46 -81,51l-279 49 -15 -87 278 -49c10,-2 18,-7 24,-15l2 -2zm396 -323c2,-4 5,-7 7,-11 28,-40 70,-67 118,-75 48,-9 96,2 136,30 40,28 66,70 75,118l40 227 -87 16 -40 -228c-5,-24 -19,-46 -39,-60 -20,-14 -45,-20 -70,-16 -24,5 -46,18 -60,39 -14,20 -20,45 -16,70l40 226 -87 15 -40 -226c-4,-24 -18,-46 -39,-60 -20,-14 -45,-20 -70,-16 -24,5 -46,19 -60,39 -15,20 -20,46 -16,70l40 227 -87 16 -40 -227c-9,-48 2,-97 30,-137 28,-40 70,-67 118,-75 48,-9 97,2 136,30 4,3 8,6 11,8z"/>
    <path class="fil3" d="M2165 367l115 -20c49,-9 96,24 104,73l58 324 -163 29c-11,2 -22,-1 -31,-7l-2 -1c-8,-7 -13,-16 -15,-26l-34 -196 114 -20 -15 -87 -115 20 -16 -89z"/>
   </g>
  </g>
  <path class="fil4" d="M757 1400l24 135c1,10 1,16 0,19l-14 9 -72 -1 -66 4c-63,11 -103,40 -119,86 -7,32 -5,81 6,145l44 248c14,83 35,137 62,161 27,24 72,31 134,20 33,-6 57,-14 71,-23 14,-9 34,-15 60,-20 15,-3 24,5 27,22l23 131c3,20 -6,39 -28,56 -27,15 -81,29 -161,43 -135,24 -234,4 -299,-59 -44,-43 -75,-116 -93,-217l-73 -416c-15,-84 -6,-154 26,-211 44,-74 133,-123 266,-147 74,-13 124,-17 152,-11 14,3 24,12 30,26zm345 -95l185 -33c13,-2 22,-2 29,2 7,2 16,12 27,30l403 898 7 18c3,17 -7,27 -28,31l-144 25c-14,3 -25,1 -33,-6 -8,-7 -14,-15 -19,-27l-49 -106c-6,-14 -17,-19 -33,-16l-201 35c-13,2 -22,11 -25,27l-8 121c2,8 0,16 -5,24 -5,7 -15,14 -31,20l-142 25c-18,3 -29,-5 -32,-23l-2 -9 -1 -7 61 -980c-1,-18 2,-30 9,-35l32 -14zm149 648l122 -22c8,-1 11,-9 6,-23l-110 -248 -7 -8 -6 -5 -8 17 -11 269c0,15 4,22 14,20zm566 229l-163 -922c-3,-19 -3,-31 0,-36 6,-12 20,-20 42,-24l115 -20c19,-4 33,-2 42,6 9,7 15,19 18,36l135 765c2,12 8,17 19,15l272 -48c15,-3 26,-1 34,5 2,1 6,9 12,25l18 102c3,19 4,31 1,36 -6,12 -21,20 -43,24l-442 78c-19,3 -31,4 -36,1 -12,-6 -20,-21 -24,-43zm830 -270l23 130c3,18 2,29 -4,34l-29 14 -131 23c-15,3 -27,2 -33,-3l-15 -30 -23 -131c-3,-15 -2,-26 3,-31 5,-6 15,-11 31,-17l130 -23c18,-3 29,-1 34,5l14 29z"/>
 </g>
</svg>
